<svg xmlns="http://www.w3.org/2000/svg" xmlns:xlink="http://www.w3.org/1999/xlink" viewBox="0 0 817.28 768"><defs><style>.cls-1{isolation:isolate;}.cls-2{fill:#fbf9ff;}.cls-3{fill:#50b1ae;}.cls-4{fill:url(#linear-gradient);}.cls-5{fill:#75c17b;}.cls-6{fill:#709744;}.cls-7{fill:#a5b952;}.cls-8{fill:#5e7f33;}.cls-50,.cls-52,.cls-54,.cls-56,.cls-58,.cls-60,.cls-62,.cls-64,.cls-9{mix-blend-mode:multiply;}.cls-9{fill:url(#linear-gradient-2);}.cls-10{fill:#e9d3af;}.cls-11{fill:#d6b298;}.cls-12{fill:#864a20;}.cls-12,.cls-13,.cls-14,.cls-15,.cls-16,.cls-17,.cls-18,.cls-19,.cls-20,.cls-21,.cls-22,.cls-23,.cls-24,.cls-25,.cls-26,.cls-27,.cls-28,.cls-29,.cls-30,.cls-31,.cls-32,.cls-33,.cls-34,.cls-35,.cls-36,.cls-37,.cls-38,.cls-39,.cls-40,.cls-41,.cls-42,.cls-43,.cls-44,.cls-45,.cls-46,.cls-47,.cls-48,.cls-54,.cls-55,.cls-56,.cls-57,.cls-58,.cls-59,.cls-60,.cls-61,.cls-62,.cls-63,.cls-64,.cls-65{fill-rule:evenodd;}.cls-13{fill:url(#GradientFill_11);}.cls-14{fill:url(#GradientFill_11-2);}.cls-15{fill:url(#GradientFill_11-3);}.cls-16{fill:url(#GradientFill_11-4);}.cls-17{fill:url(#GradientFill_11-5);}.cls-18{fill:url(#GradientFill_11-6);}.cls-19{fill:url(#GradientFill_11-7);}.cls-20{fill:url(#linear-gradient-3);}.cls-21{fill:url(#GradientFill_11-8);}.cls-22{fill:url(#linear-gradient-4);}.cls-23{fill:url(#GradientFill_11-9);}.cls-24{fill:url(#linear-gradient-5);}.cls-25{fill:url(#GradientFill_11-10);}.cls-26{fill:url(#GradientFill_11-11);}.cls-27{fill:url(#GradientFill_11-12);}.cls-28{fill:url(#GradientFill_11-13);}.cls-29{fill:url(#GradientFill_11-14);}.cls-30{fill:url(#GradientFill_11-15);}.cls-31{fill:url(#GradientFill_11-16);}.cls-32{fill:url(#linear-gradient-6);}.cls-33{fill:url(#GradientFill_11-17);}.cls-34{fill:url(#linear-gradient-7);}.cls-35{fill:url(#GradientFill_11-18);}.cls-36{fill:url(#linear-gradient-8);}.cls-37{fill:url(#GradientFill_11-19);}.cls-38{fill:url(#GradientFill_11-20);}.cls-39{fill:url(#GradientFill_11-21);}.cls-40{fill:url(#GradientFill_11-22);}.cls-41{fill:url(#GradientFill_11-23);}.cls-42{fill:url(#GradientFill_11-24);}.cls-43{fill:url(#GradientFill_11-25);}.cls-44{fill:url(#linear-gradient-9);}.cls-45{fill:url(#GradientFill_11-26);}.cls-46{fill:url(#linear-gradient-10);}.cls-47{fill:url(#GradientFill_11-27);}.cls-48{fill:url(#linear-gradient-11);}.cls-49{fill:#27acb4;}.cls-50{fill:url(#linear-gradient-12);}.cls-51{fill:#e7f4f2;}.cls-52{fill:url(#linear-gradient-13);}.cls-53{fill:#52c1c0;}.cls-54{fill:url(#linear-gradient-14);}.cls-55{fill:url(#GradientFill_11-28);}.cls-56{fill:url(#linear-gradient-15);}.cls-57{fill:url(#GradientFill_11-29);}.cls-58{fill:url(#linear-gradient-16);}.cls-59{fill:url(#GradientFill_11-30);}.cls-60{fill:url(#linear-gradient-17);}.cls-61{fill:url(#GradientFill_11-31);}.cls-62{fill:url(#linear-gradient-18);}.cls-63{fill:url(#GradientFill_11-32);}.cls-64{fill:url(#linear-gradient-19);}.cls-65{fill:url(#GradientFill_11-33);}.cls-66{fill:#fff;opacity:0.5;}.cls-67{fill:url(#linear-gradient-20);}.cls-68{fill:url(#linear-gradient-21);}.cls-69{fill:#e8e8ff;}</style><linearGradient id="linear-gradient" x1="5335.81" y1="277.49" x2="5486.16" y2="277.49" gradientTransform="matrix(-1, 0, 0, 1, 6273.33, 0)" gradientUnits="userSpaceOnUse"><stop offset="0.01" stop-color="#fff" stop-opacity="0"/><stop offset="0.29" stop-color="#c7ebeb" stop-opacity="0.33"/><stop offset="0.63" stop-color="#88d4d4" stop-opacity="0.69"/><stop offset="0.88" stop-color="#61c6c5" stop-opacity="0.91"/><stop offset="1" stop-color="#52c1c0"/></linearGradient><linearGradient id="linear-gradient-2" x1="4251.89" y1="283.76" x2="4251.89" y2="513.73" gradientTransform="matrix(-1, 0, 0, 1, 5310.69, 0)" gradientUnits="userSpaceOnUse"><stop offset="0" stop-color="#fff" stop-opacity="0"/><stop offset="1" stop-color="#709744"/></linearGradient><linearGradient id="GradientFill_11" x1="5073.48" y1="1741.41" x2="5111.17" y2="1741.41" gradientTransform="matrix(-0.94, -0.33, -0.33, 0.94, 6328.75, 308.63)" gradientUnits="userSpaceOnUse"><stop offset="0" stop-color="#a8b444"/><stop offset="0.22" stop-color="#9eac3c"/><stop offset="0.63" stop-color="#577736"/><stop offset="1" stop-color="#1f4220"/></linearGradient><linearGradient id="GradientFill_11-2" x1="5099.81" y1="1696.26" x2="5088.77" y2="1749.72" xlink:href="#GradientFill_11"/><linearGradient id="GradientFill_11-3" x1="3856.38" y1="4254.34" x2="3894.07" y2="4254.34" gradientTransform="matrix(-0.41, -0.91, -0.91, 0.41, 6412.89, 2105.08)" xlink:href="#GradientFill_11"/><linearGradient id="GradientFill_11-4" x1="3882.71" y1="4209.19" x2="3871.67" y2="4262.66" gradientTransform="matrix(-0.41, -0.91, -0.91, 0.41, 6412.89, 2105.08)" xlink:href="#GradientFill_11"/><linearGradient id="GradientFill_11-5" x1="1438.63" y1="5128.33" x2="1470.59" y2="5128.33" gradientTransform="matrix(0.33, -0.94, -0.94, -0.33, 5311.44, 3352.72)" xlink:href="#GradientFill_11"/><linearGradient id="GradientFill_11-6" x1="1460.96" y1="5090.04" x2="1451.6" y2="5135.38" gradientTransform="matrix(0.33, -0.94, -0.94, -0.33, 5311.44, 3352.72)" xlink:href="#GradientFill_11"/><linearGradient id="GradientFill_11-7" x1="-1636.02" y1="314.35" x2="-1598.33" y2="314.35" gradientTransform="translate(2497.14 -186.54) rotate(-4.73)" xlink:href="#GradientFill_11"/><linearGradient id="linear-gradient-3" x1="5152.27" y1="1759.94" x2="5093.83" y2="1734.29" gradientTransform="matrix(-0.94, -0.33, -0.33, 0.94, 6328.75, 308.63)" gradientUnits="userSpaceOnUse"><stop offset="0" stop-color="#a8b444"/><stop offset="0.22" stop-color="#9eac3c"/><stop offset="0.63" stop-color="#577736"/><stop offset="0.86" stop-color="#345729"/><stop offset="1" stop-color="#1f4220"/></linearGradient><linearGradient id="GradientFill_11-8" x1="-171.74" y1="-1384.87" x2="-134.05" y2="-1384.87" gradientTransform="matrix(0.74, -0.68, 0.68, 0.74, 1951.02, 1189.73)" xlink:href="#GradientFill_11"/><linearGradient id="linear-gradient-4" x1="4509.3" y1="-387.62" x2="4450.85" y2="-413.27" gradientTransform="matrix(-0.95, 0.32, 0.32, 0.95, 5278.83, -774.54)" xlink:href="#linear-gradient-3"/><linearGradient id="GradientFill_11-9" x1="2257.15" y1="-1771.85" x2="2288.43" y2="-1771.85" gradientTransform="matrix(0.1, -1, 1, 0.1, 2444.17, 2728.53)" xlink:href="#GradientFill_11"/><linearGradient id="linear-gradient-5" x1="2447.38" y1="-1734.52" x2="2398.88" y2="-1755.81" gradientTransform="matrix(-0.5, 0.87, 0.87, 0.5, 3623.95, -950.08)" xlink:href="#linear-gradient-3"/><linearGradient id="GradientFill_11-10" x1="5040.38" y1="1746.57" x2="5074.48" y2="1746.57" xlink:href="#GradientFill_11"/><linearGradient id="GradientFill_11-11" x1="5064.21" y1="1705.72" x2="5054.22" y2="1754.1" xlink:href="#GradientFill_11"/><linearGradient id="GradientFill_11-12" x1="3832.55" y1="4232.19" x2="3866.65" y2="4232.19" gradientTransform="matrix(-0.41, -0.91, -0.91, 0.41, 6412.89, 2105.08)" xlink:href="#GradientFill_11"/><linearGradient id="GradientFill_11-13" x1="3856.38" y1="4191.33" x2="3846.39" y2="4239.71" gradientTransform="matrix(-0.41, -0.91, -0.91, 0.41, 6412.89, 2105.08)" xlink:href="#GradientFill_11"/><linearGradient id="GradientFill_11-14" x1="1438.18" y1="5094.06" x2="1467.09" y2="5094.06" gradientTransform="matrix(0.33, -0.94, -0.94, -0.33, 5311.44, 3352.72)" xlink:href="#GradientFill_11"/><linearGradient id="GradientFill_11-15" x1="1458.38" y1="5059.42" x2="1449.91" y2="5100.44" gradientTransform="matrix(0.33, -0.94, -0.94, -0.33, 5311.44, 3352.72)" xlink:href="#GradientFill_11"/><linearGradient id="GradientFill_11-16" x1="-1601.11" y1="334" x2="-1567.01" y2="334" gradientTransform="translate(2497.14 -186.54) rotate(-4.73)" xlink:href="#GradientFill_11"/><linearGradient id="linear-gradient-6" x1="5111.68" y1="1763.34" x2="5058.79" y2="1740.13" xlink:href="#linear-gradient-3"/><linearGradient id="GradientFill_11-17" x1="-154.23" y1="-1349.33" x2="-120.12" y2="-1349.33" gradientTransform="matrix(0.74, -0.68, 0.68, 0.74, 1951.02, 1189.73)" xlink:href="#GradientFill_11"/><linearGradient id="linear-gradient-7" x1="4478.09" y1="-362.61" x2="4425.2" y2="-385.82" gradientTransform="matrix(-0.95, 0.32, 0.32, 0.95, 5278.83, -774.54)" xlink:href="#linear-gradient-3"/><linearGradient id="GradientFill_11-18" x1="2248.33" y1="-1735.5" x2="2276.63" y2="-1735.5" gradientTransform="matrix(0.1, -1, 1, 0.1, 2444.17, 2728.53)" xlink:href="#GradientFill_11"/><linearGradient id="linear-gradient-8" x1="2440.01" y1="-1697.98" x2="2396.12" y2="-1717.24" gradientTransform="matrix(-0.5, 0.87, 0.87, 0.5, 3623.95, -950.08)" xlink:href="#linear-gradient-3"/><linearGradient id="GradientFill_11-19" x1="5105.69" y1="1769.5" x2="5139.79" y2="1769.5" xlink:href="#GradientFill_11"/><linearGradient id="GradientFill_11-20" x1="5129.52" y1="1728.65" x2="5119.53" y2="1777.03" xlink:href="#GradientFill_11"/><linearGradient id="GradientFill_11-21" x1="3860.59" y1="4295.47" x2="3894.69" y2="4295.47" gradientTransform="matrix(-0.41, -0.91, -0.91, 0.41, 6412.89, 2105.08)" xlink:href="#GradientFill_11"/><linearGradient id="GradientFill_11-22" x1="3884.42" y1="4254.61" x2="3874.43" y2="4302.99" gradientTransform="matrix(-0.41, -0.91, -0.91, 0.41, 6412.89, 2105.08)" xlink:href="#GradientFill_11"/><linearGradient id="GradientFill_11-23" x1="1415.52" y1="5159.47" x2="1444.44" y2="5159.47" gradientTransform="matrix(0.33, -0.94, -0.94, -0.33, 5311.44, 3352.72)" xlink:href="#GradientFill_11"/><linearGradient id="GradientFill_11-24" x1="1435.73" y1="5124.82" x2="1427.26" y2="5165.85" gradientTransform="matrix(0.33, -0.94, -0.94, -0.33, 5311.44, 3352.72)" xlink:href="#GradientFill_11"/><linearGradient id="GradientFill_11-25" x1="-1670.09" y1="328.29" x2="-1635.99" y2="328.29" gradientTransform="translate(2497.14 -186.54) rotate(-4.73)" xlink:href="#GradientFill_11"/><linearGradient id="linear-gradient-9" x1="5176.99" y1="1786.28" x2="5124.1" y2="1763.07" xlink:href="#linear-gradient-3"/><linearGradient id="GradientFill_11-26" x1="-205.16" y1="-1396.2" x2="-171.05" y2="-1396.2" gradientTransform="matrix(0.74, -0.68, 0.68, 0.74, 1951.02, 1189.73)" xlink:href="#GradientFill_11"/><linearGradient id="linear-gradient-10" x1="4543.71" y1="-384.63" x2="4490.83" y2="-407.84" gradientTransform="matrix(-0.95, 0.32, 0.32, 0.95, 5278.83, -774.54)" xlink:href="#linear-gradient-3"/><linearGradient id="GradientFill_11-27" x1="2241.48" y1="-1804.38" x2="2269.79" y2="-1804.38" gradientTransform="matrix(0.1, -1, 1, 0.1, 2444.17, 2728.53)" xlink:href="#GradientFill_11"/><linearGradient id="linear-gradient-11" x1="2474.36" y1="-1758.07" x2="2430.47" y2="-1777.33" gradientTransform="matrix(-0.5, 0.87, 0.87, 0.5, 3623.95, -950.08)" xlink:href="#linear-gradient-3"/><linearGradient id="linear-gradient-12" x1="4145.6" y1="350.09" x2="4247.41" y2="83.04" gradientTransform="matrix(-1, 0, 0, 1, 5310.69, 0)" gradientUnits="userSpaceOnUse"><stop offset="0" stop-color="#fff" stop-opacity="0"/><stop offset="1" stop-color="#2c95ab"/></linearGradient><linearGradient id="linear-gradient-13" x1="4299.15" y1="173.54" x2="4170.23" y2="182.47" gradientTransform="matrix(-1, 0, 0, 1, 5310.69, 0)" gradientUnits="userSpaceOnUse"><stop offset="0" stop-color="#fff" stop-opacity="0"/><stop offset="1" stop-color="#71c5c0"/></linearGradient><linearGradient id="linear-gradient-14" x1="4365.38" y1="392.95" x2="4375.3" y2="368.16" gradientTransform="matrix(-1, 0, 0, 1, 5310.69, 0)" gradientUnits="userSpaceOnUse"><stop offset="0" stop-color="#fff" stop-opacity="0"/><stop offset="1" stop-color="#7c5a5e"/></linearGradient><linearGradient id="GradientFill_11-28" x1="4359.43" y1="372.48" x2="4379.79" y2="384.84" gradientTransform="matrix(-1, 0, 0, 1, 5310.69, 0)" xlink:href="#GradientFill_11"/><linearGradient id="linear-gradient-15" x1="4444.5" y1="395.37" x2="4454.42" y2="370.58" xlink:href="#linear-gradient-14"/><linearGradient id="GradientFill_11-29" x1="4438.55" y1="374.89" x2="4458.91" y2="387.26" gradientTransform="matrix(-1, 0, 0, 1, 5310.69, 0)" xlink:href="#GradientFill_11"/><linearGradient id="linear-gradient-16" x1="4388.46" y1="392.11" x2="4398.38" y2="367.32" xlink:href="#linear-gradient-14"/><linearGradient id="GradientFill_11-30" x1="4382.51" y1="371.64" x2="4402.88" y2="384" gradientTransform="matrix(-1, 0, 0, 1, 5310.69, 0)" xlink:href="#GradientFill_11"/><linearGradient id="linear-gradient-17" x1="4424.79" y1="393.31" x2="4434.71" y2="368.52" xlink:href="#linear-gradient-14"/><linearGradient id="GradientFill_11-31" x1="4418.84" y1="372.84" x2="4439.2" y2="385.2" gradientTransform="matrix(-1, 0, 0, 1, 5310.69, 0)" xlink:href="#GradientFill_11"/><linearGradient id="linear-gradient-18" x1="4351.03" y1="393.31" x2="4360.95" y2="368.52" xlink:href="#linear-gradient-14"/><linearGradient id="GradientFill_11-32" x1="4345.08" y1="372.84" x2="4365.45" y2="385.2" gradientTransform="matrix(-1, 0, 0, 1, 5310.69, 0)" xlink:href="#GradientFill_11"/><linearGradient id="linear-gradient-19" x1="4315.64" y1="402.67" x2="4325.56" y2="377.88" xlink:href="#linear-gradient-14"/><linearGradient id="GradientFill_11-33" x1="4309.69" y1="382.2" x2="4330.06" y2="394.56" gradientTransform="matrix(-1, 0, 0, 1, 5310.69, 0)" xlink:href="#GradientFill_11"/><linearGradient id="linear-gradient-20" x1="-3287.97" y1="243.45" x2="-3204.43" y2="243.45" gradientTransform="translate(4309.73)" gradientUnits="userSpaceOnUse"><stop offset="0.01" stop-color="#fff" stop-opacity="0"/><stop offset="0.1" stop-color="#fff" stop-opacity="0.11"/><stop offset="0.43" stop-color="#fff" stop-opacity="0.49"/><stop offset="0.71" stop-color="#fff" stop-opacity="0.76"/><stop offset="0.9" stop-color="#fff" stop-opacity="0.93"/><stop offset="1" stop-color="#fff"/></linearGradient><linearGradient id="linear-gradient-21" x1="5338.92" y1="177.12" x2="5431.62" y2="177.12" xlink:href="#linear-gradient"/></defs><title>bg</title><g class="cls-1"><g id="Layer_1" data-name="Layer 1"><path class="cls-2" d="M989.07,546s-49.92-186.62-181.91-184S745.22-88.46,907.12,129s43.44,344.57,204.23,370.28S946.78,187.49,967.71,144s133.48,149.47,242.2,95.74S989.07,546,989.07,546Z" transform="translate(-549.72 -1)"/><path class="cls-3" d="M1341.73,1H1043.55c-34.62,28.86-70,71.42-98.54,134.21-85.82,189.13-59.12,225.43-171.65,322.86C678,540.65,588.11,652.05,600.07,769H1367V1Z" transform="translate(-549.72 -1)"/><path class="cls-4" d="M793.67,290.13c0-.13,0-.25,0-.38a18.19,18.19,0,0,1,18.19-18.2c.17,0,.33,0,.49,0,2.33-14,12.75-24.53,25.26-24.53,12.92,0,23.62,11.26,25.46,25.94a18.2,18.2,0,0,1,25.29,16.76c0,.3,0,.6-.05.9A9.08,9.08,0,0,1,901,301.38l36.57,6.56H796.27a9.09,9.09,0,0,1-2.6-17.81Z" transform="translate(-549.72 -1)"/><path class="cls-5" d="M818.58,416s51.66-138.91,76.81-139.16c9.29-.1,22.55,18.62,35.59,42.28a6.62,6.62,0,0,0,11.17.68c5.21-7.24,10.08-11.8,14.08-11.84,19.49-.2,61.64,106.64,61.64,106.64l-121.18,1.22.23-.61Z" transform="translate(-549.72 -1)"/><path class="cls-6" d="M818.58,416s51.66-138.91,76.81-139.16c9.29-.1,22.55,18.62,35.59,42.28a6.62,6.62,0,0,0,11.17.68c5.21-7.24,10.08-11.8,14.08-11.84,19.49-.2,61.64,106.64,61.64,106.64l-121.18,1.22.23-.61Z" transform="translate(-549.72 -1)"/><path class="cls-7" d="M893.52,289.82a11.3,11.3,0,0,0,3.3,2.09l3.38,1.63c1.33.65.82,2.1-.79,2.28-1.09.12-2.18.26-3.26.42a2.75,2.75,0,0,0,.12,2.86c.49.79-.26,1.67-1.48,1.71a5.44,5.44,0,0,0-1.75.27,3.33,3.33,0,0,0-1.58,1.44,44.2,44.2,0,0,0-6.3,13.92,35.06,35.06,0,0,1-2,6.73c-.82,1.72-3.41,2.54-5.9,2.06a1.62,1.62,0,0,0-.87.07,1.74,1.74,0,0,0-.77.72l-3.2,4.74a2.6,2.6,0,0,1-1.55,1.25.64.64,0,0,1-.2,0,3.28,3.28,0,0,0-2.84,1.44c-.43,1-.7,2-1,2.94-2.76,7.82-11.56,14.44-22.41,17,16-35.49,36-73.44,49.43-76.42a18.18,18.18,0,0,0-1.6,9.46A5.52,5.52,0,0,0,893.52,289.82Z" transform="translate(-549.72 -1)"/><path class="cls-8" d="M885.32,416s51.66-112.6,76.81-112.8c9.29-.08,22.55,15.1,35.59,34.27,2.35,3.46,8.33,3.75,11.17.55,5.21-5.86,10.08-9.56,14.08-9.6,19.49-.16,61.64,86.44,61.64,86.44l-121.18,1,.23-.49Z" transform="translate(-549.72 -1)"/><path class="cls-7" d="M960.26,313.71a11.61,11.61,0,0,0,3.3,1.69l3.37,1.33c1.34.53.83,1.71-.78,1.85-1.09.09-2.18.21-3.26.34a1.88,1.88,0,0,0,.12,2.32c.49.63-.26,1.35-1.49,1.38a7,7,0,0,0-1.75.22A3.24,3.24,0,0,0,958.2,324a32.82,32.82,0,0,0-6.3,11.28,25.09,25.09,0,0,1-2,5.46c-.82,1.39-3.41,2.06-5.9,1.67a1.72,1.72,0,0,0-.87.06,1.58,1.58,0,0,0-.77.58l-3.2,3.84a2.58,2.58,0,0,1-1.55,1l-.2,0c-1.28.07-2.45.46-2.84,1.16s-.7,1.6-1,2.39c-2.77,6.33-11.56,11.71-22.41,13.78,16-28.77,36-59.53,49.43-61.95A12.32,12.32,0,0,0,959,311,4,4,0,0,0,960.26,313.71Z" transform="translate(-549.72 -1)"/><path class="cls-6" d="M959.16,416s51.66-138.91,76.81-139.16c9.28-.1,22.55,18.62,35.59,42.28a6.62,6.62,0,0,0,11.17.68c5.21-7.24,10.07-11.8,14.07-11.84,19.5-.2,61.65,106.64,61.65,106.64l-121.18,1.22.23-.61Z" transform="translate(-549.72 -1)"/><path class="cls-9" d="M959.16,416s51.66-138.91,76.81-139.16c9.28-.1,22.55,18.62,35.59,42.28a6.62,6.62,0,0,0,11.17.68c5.21-7.24,10.07-11.8,14.07-11.84,19.5-.2,61.65,106.64,61.65,106.64l-121.18,1.22.23-.61Z" transform="translate(-549.72 -1)"/><path class="cls-7" d="M1034.09,289.82a11.57,11.57,0,0,0,3.3,2.09l3.38,1.63c1.34.65.83,2.1-.78,2.28-1.09.12-2.18.26-3.26.42a2.73,2.73,0,0,0,.12,2.86c.49.79-.27,1.67-1.49,1.71a5.44,5.44,0,0,0-1.75.27,3.31,3.31,0,0,0-1.57,1.44,44.23,44.23,0,0,0-6.31,13.92,35,35,0,0,1-2,6.73c-.82,1.72-3.42,2.54-5.9,2.06a1.67,1.67,0,0,0-.88.07,1.86,1.86,0,0,0-.77.72l-3.2,4.74a2.55,2.55,0,0,1-1.54,1.25.69.69,0,0,1-.2,0,3.28,3.28,0,0,0-2.84,1.44c-.43,1-.7,2-1,2.94-2.76,7.82-11.55,14.44-22.4,17,16-35.49,36-73.44,49.42-76.42a18.28,18.28,0,0,0-1.59,9.46A5.51,5.51,0,0,0,1034.09,289.82Z" transform="translate(-549.72 -1)"/><path class="cls-10" d="M887.62,372.68h58.5a139,139,0,0,1,112.38,57.16h-274A121.64,121.64,0,0,1,887.62,372.68Z" transform="translate(-549.72 -1)"/><path class="cls-11" d="M891.94,385c0,.57,1,1,2.15,1s2.15-.46,2.15-1-1-1-2.15-1S891.94,384.38,891.94,385Z" transform="translate(-549.72 -1)"/><ellipse class="cls-11" cx="402.01" cy="383.95" rx="2.15" ry="1.03"/><path class="cls-11" d="M943.78,393.39c0,.56,1,1,2.14,1s2.15-.46,2.15-1-1-1-2.15-1S943.78,392.82,943.78,393.39Z" transform="translate(-549.72 -1)"/><ellipse class="cls-11" cx="441.27" cy="400.18" rx="2.15" ry="1.03"/><path class="cls-11" d="M934.67,404c0,.57,1,1,2.14,1s2.15-.46,2.15-1-1-1-2.15-1S934.67,403.4,934.67,404Z" transform="translate(-549.72 -1)"/><path class="cls-11" d="M894.09,395.89c0,.57,1,1,2.15,1s2.14-.46,2.14-1-1-1-2.14-1S894.09,395.32,894.09,395.89Z" transform="translate(-549.72 -1)"/><path class="cls-11" d="M836.47,394.41c0,.57,1,1,2.15,1s2.14-.46,2.14-1-1-1-2.14-1S836.47,393.85,836.47,394.41Z" transform="translate(-549.72 -1)"/><path class="cls-11" d="M869.57,388.25c0,.57,1,1,2.15,1s2.14-.46,2.14-1-1-1-2.14-1S869.57,387.68,869.57,388.25Z" transform="translate(-549.72 -1)"/><path class="cls-11" d="M874.74,407.44c0,.57,1,1,2.15,1s2.15-.46,2.15-1-1-1-2.15-1S874.74,406.88,874.74,407.44Z" transform="translate(-549.72 -1)"/><ellipse class="cls-11" cx="266.07" cy="402.97" rx="2.15" ry="1.03"/><path class="cls-11" d="M907.6,378.89c0,.57,1,1,2.15,1s2.14-.46,2.14-1-1-1-2.14-1S907.6,378.32,907.6,378.89Z" transform="translate(-549.72 -1)"/><path class="cls-11" d="M886.87,378.27c0,.34.57.62,1.29.62s1.28-.28,1.28-.62-.57-.61-1.28-.61S886.87,377.93,886.87,378.27Z" transform="translate(-549.72 -1)"/><path class="cls-11" d="M853.4,391.11c0,.34.57.62,1.28.62s1.29-.28,1.29-.62-.57-.61-1.29-.61S853.4,390.77,853.4,391.11Z" transform="translate(-549.72 -1)"/><path class="cls-11" d="M852.11,379.92c0,.34.58.62,1.29.62s1.28-.28,1.28-.62-.57-.62-1.28-.62S852.11,379.58,852.11,379.92Z" transform="translate(-549.72 -1)"/><path class="cls-11" d="M824.13,401.18c0,.34.58.61,1.29.61s1.29-.27,1.29-.61-.58-.62-1.29-.62S824.13,400.84,824.13,401.18Z" transform="translate(-549.72 -1)"/><path class="cls-11" d="M923.81,398.34c0,.34.58.62,1.29.62s1.29-.28,1.29-.62-.58-.61-1.29-.61S923.81,398,923.81,398.34Z" transform="translate(-549.72 -1)"/><ellipse class="cls-11" cx="357.88" cy="409.71" rx="1.29" ry="0.62"/><path class="cls-11" d="M967.3,386c0,.34.58.62,1.29.62s1.29-.28,1.29-.62-.58-.62-1.29-.62S967.3,385.64,967.3,386Z" transform="translate(-549.72 -1)"/><ellipse class="cls-11" cx="416.3" cy="400.18" rx="1.29" ry="0.62"/><path class="cls-11" d="M860.25,406.83c0,.34.57.61,1.28.61s1.29-.27,1.29-.61-.58-.62-1.29-.62S860.25,406.49,860.25,406.83Z" transform="translate(-549.72 -1)"/><path class="cls-11" d="M940.34,401.18c0,.34.58.61,1.29.61s1.28-.27,1.28-.61-.57-.62-1.28-.62S940.34,400.84,940.34,401.18Z" transform="translate(-549.72 -1)"/><path class="cls-11" d="M944.64,382.64c0,.34.57.61,1.28.61s1.29-.27,1.29-.61-.57-.62-1.29-.62S944.64,382.3,944.64,382.64Z" transform="translate(-549.72 -1)"/><path class="cls-12" d="M931.62,271.09s-20.76,46.55-7.68,107.25a1.79,1.79,0,0,1-.67,1.8c-1.5,1.14-4.83,2.51-9.54-2.33a1.81,1.81,0,0,1-.51-1.45c.71-6.81-3.34-80.38,15.17-104.82Z" transform="translate(-549.72 -1)"/><path class="cls-13" d="M931.47,266l-3.93-.63a19.37,19.37,0,0,1,3.28-9l4.26,1.66-3.5-2.79a39.56,39.56,0,0,1,6.11-6.7l3.75,3.67-1-5.57a19.27,19.27,0,0,1,8.48-3l.75,6.25,1.67-6.31c11.39-1.09,21,6.14,21,6.14l-1.5,1.51a50.09,50.09,0,0,1-13.32,9.54l-4.16-2.92,2.76,3.59L955,262a54.78,54.78,0,0,0-6.64,3.6l-3.14-4.86,1.63,5.83c-2.65,1.74-5.27,3.66-7.7,5.56l-2.83-4.37,1.51,5.41c-6.22,5-10.89,9.44-10.89,9.44a113.61,113.61,0,0,1,.4-15.92Z" transform="translate(-549.72 -1)"/><path class="cls-14" d="M927.38,266.64l4.09-.65-3.93-.63a19.37,19.37,0,0,1,3.28-9l4.26,1.66-3.5-2.79a39.56,39.56,0,0,1,6.11-6.7l3.75,3.67-1-5.57a19.27,19.27,0,0,1,8.48-3l.75,6.25,1.67-6.31c11.39-1.09,21,6.14,21,6.14s-39.83-1.23-45.43,32.86A113.61,113.61,0,0,1,927.38,266.64Z" transform="translate(-549.72 -1)"/><path class="cls-15" d="M941.47,274.91l-2.23-3.29a19.19,19.19,0,0,1,8.78-3.77l1.71,4.24-.36-4.46a39.92,39.92,0,0,1,9.07-.15l-.11,5.26,3.41-4.51a19.22,19.22,0,0,1,8,4.1l-4,4.83,5.74-3.11c8.59,7.55,9.92,19.52,9.92,19.52l-2.12-.05a50.3,50.3,0,0,1-16.08-3.18l-.72-5-.72,4.47c-.39-.15-.79-.3-1.18-.47a54.29,54.29,0,0,0-7.17-2.37l1.39-5.62-3.14,5.18c-3.07-.74-6.27-1.33-9.32-1.8l1.25-5.05-2.9,4.8c-7.89-1.13-14.35-1.46-14.35-1.46a114.23,114.23,0,0,1,11.87-10.62Z" transform="translate(-549.72 -1)"/><path class="cls-16" d="M938.19,272.37l3.28,2.54-2.23-3.29a19.19,19.19,0,0,1,8.78-3.77l1.71,4.24-.36-4.46a39.92,39.92,0,0,1,9.07-.15l-.11,5.26,3.41-4.51a19.22,19.22,0,0,1,8,4.1l-4,4.83,5.74-3.11c8.59,7.55,9.92,19.52,9.92,19.52S955,263.72,926.32,283A114.23,114.23,0,0,1,938.19,272.37Z" transform="translate(-549.72 -1)"/><path class="cls-17" d="M940.51,286.41l.52-3.34a19.84,19.84,0,0,1,4.33,1,19.05,19.05,0,0,1,3.29,1.72l-1.39,3.62,2.35-3a33.94,33.94,0,0,1,5.71,5.15l-3.1,3.2,4.72-.82a16.19,16.19,0,0,1,2.6,7.17l-5.3.66,5.36,1.4c1,9.65-5.13,17.84-5.13,17.84l-1.29-1.26a42.3,42.3,0,0,1-8.13-11.27l2.46-3.53-3,2.35c-.16-.32-.32-.64-.46-1a46.58,46.58,0,0,0-3.08-5.62l4.11-2.68-4.94,1.4c-1.48-2.24-3.12-4.45-4.74-6.51l3.7-2.41-4.58,1.3c-4.23-5.26-8-9.2-8-9.2a95.6,95.6,0,0,1,13.5.28Z" transform="translate(-549.72 -1)"/><path class="cls-18" d="M939.94,282.94l.57,3.47.52-3.34a19.84,19.84,0,0,1,4.33,1,19.05,19.05,0,0,1,3.29,1.72l-1.39,3.62,2.35-3a33.94,33.94,0,0,1,5.71,5.15l-3.1,3.2,4.72-.82a16.19,16.19,0,0,1,2.6,7.17l-5.3.66,5.36,1.4c1,9.65-5.13,17.84-5.13,17.84s.9-33.77-28-38.4A95.6,95.6,0,0,1,939.94,282.94Z" transform="translate(-549.72 -1)"/><path class="cls-19" d="M926.27,265.51l4,.38a19.37,19.37,0,0,0-.9-9.51l-4.55.53,4.09-1.81a40.17,40.17,0,0,0-4.21-8l-4.56,2.62,2.32-5.16a19.06,19.06,0,0,0-7.44-5.06l-2.3,5.85,0-6.53c-10.75-3.92-21.89.64-21.89.64l1.06,1.84a50.17,50.17,0,0,0,10.49,12.59l4.76-1.78-3.58,2.78,1,.81a54.14,54.14,0,0,1,5.52,5.15l4.26-3.91-3,5.24c2.12,2.35,4.17,4.87,6,7.31l3.83-3.51-2.82,4.85c4.77,6.38,8.16,11.9,8.16,11.9a113.89,113.89,0,0,0,3.63-15.52Z" transform="translate(-549.72 -1)"/><path class="cls-20" d="M930.07,267.17l-3.8-1.66,4,.38a19.37,19.37,0,0,0-.9-9.51l-4.55.53,4.09-1.81a40.17,40.17,0,0,0-4.21-8l-4.56,2.62,2.32-5.16a19.06,19.06,0,0,0-7.44-5.06l-2.3,5.85,0-6.53c-10.75-3.92-21.89.64-21.89.64s38.84,8.86,35.67,43.27A113.89,113.89,0,0,0,930.07,267.17Z" transform="translate(-549.72 -1)"/><path class="cls-21" d="M915.71,269.37l3.36-2.13a23.14,23.14,0,0,0-3.15-4.2,22,22,0,0,0-3.41-2.75l-3.26,3.2,2.11-3.94a40.44,40.44,0,0,0-8.25-3.75l-2,4.86-1.33-5.49a19.14,19.14,0,0,0-9,.57l1.77,6-4-5.14c-10.89,3.5-16.88,13.95-16.88,13.95l2,.8a50.26,50.26,0,0,0,16,3.49l2.66-4.33-1.12,4.39,1.27,0a53.81,53.81,0,0,1,7.52.68l1-5.71.81,6c3.12.55,6.28,1.28,9.27,2.06l.86-5.13.76,5.57c7.68,2.09,13.74,4.37,13.74,4.37a114.37,114.37,0,0,0-6.66-14.47Z" transform="translate(-549.72 -1)"/><path class="cls-22" d="M919.73,268.35l-4,1,3.36-2.13a23.14,23.14,0,0,0-3.15-4.2,22,22,0,0,0-3.41-2.75l-3.26,3.2,2.11-3.94a40.44,40.44,0,0,0-8.25-3.75l-2,4.86-1.33-5.49a19.14,19.14,0,0,0-9,.57l1.77,6-4-5.14c-10.89,3.5-16.88,13.95-16.88,13.95s36.09-16.87,54.72,12.23A114.37,114.37,0,0,0,919.73,268.35Z" transform="translate(-549.72 -1)"/><path class="cls-23" d="M912.37,280.31l.91-3.18a16,16,0,0,0-7.9-.69l-.25,3.79-.87-3.61a32.87,32.87,0,0,0-7.19,2.23l1.45,4.12-3.86-2.67a16,16,0,0,0-5.25,5.31l4.43,2.76-5.33-1c-4.81,8.18-2.76,18-2.76,18l1.66-.59a41.62,41.62,0,0,0,11.85-6.67l-.74-4.16,1.73,3.34c.27-.22.55-.44.81-.68a45.43,45.43,0,0,1,5-3.72l-2.56-4.08,3.82,3.27c2.24-1.38,4.6-2.67,6.88-3.83L912,284.59l3.54,3c5.91-2.94,10.93-4.88,10.93-4.88a94.89,94.89,0,0,0-12.12-5.29Z" transform="translate(-549.72 -1)"/><path class="cls-24" d="M914.3,277.45l-1.93,2.86.91-3.18a16,16,0,0,0-7.9-.69l-.25,3.79-.87-3.61a32.87,32.87,0,0,0-7.19,2.23l1.45,4.12-3.86-2.67a16,16,0,0,0-5.25,5.31l4.43,2.76-5.33-1c-4.81,8.18-2.76,18-2.76,18s13.06-30.38,40.67-22.63A94.89,94.89,0,0,0,914.3,277.45Z" transform="translate(-549.72 -1)"/><path class="cls-12" d="M964.8,290.12S944,319,957.12,379.75a1.79,1.79,0,0,1-.67,1.8c-1.5,1.14-4.83,2.51-9.54-2.33a1.83,1.83,0,0,1-.51-1.45c.71-6.81-3.33-62.75,15.17-87.19Z" transform="translate(-549.72 -1)"/><path class="cls-25" d="M964.19,282.28l-3.56-.57a17.55,17.55,0,0,1,3-8.12l3.86,1.5-3.17-2.52a36.08,36.08,0,0,1,5.53-6.07l3.39,3.33-.85-5a17.23,17.23,0,0,1,7.67-2.74l.68,5.65,1.51-5.71c10.3-1,19,5.56,19,5.56l-1.35,1.36a45.38,45.38,0,0,1-12.06,8.63l-3.76-2.64,2.5,3.25c-.35.16-.69.33-1,.48a49.2,49.2,0,0,0-6,3.26l-2.84-4.4,1.47,5.28c-2.4,1.57-4.77,3.31-7,5l-2.55-4,1.36,4.89c-5.63,4.49-9.86,8.55-9.86,8.55a103.51,103.51,0,0,1,.37-14.41Z" transform="translate(-549.72 -1)"/><path class="cls-26" d="M960.48,282.87l3.71-.59-3.56-.57a17.55,17.55,0,0,1,3-8.12l3.86,1.5-3.17-2.52a36.08,36.08,0,0,1,5.53-6.07l3.39,3.33-.85-5a17.23,17.23,0,0,1,7.67-2.74l.68,5.65,1.51-5.71c10.3-1,19,5.56,19,5.56s-36-1.12-41.11,29.73A103.51,103.51,0,0,1,960.48,282.87Z" transform="translate(-549.72 -1)"/><path class="cls-27" d="M973.23,290.36l-2-3a20.71,20.71,0,0,1,4.13-2.36,21.2,21.2,0,0,1,3.82-1l1.55,3.83-.34-4a36.43,36.43,0,0,1,8.21-.13l-.1,4.75,3.09-4.08a17.31,17.31,0,0,1,7.25,3.71l-3.65,4.37,5.19-2.81c7.78,6.83,9,17.66,9,17.66l-1.93-.05a45.5,45.5,0,0,1-14.54-2.87l-.66-4.55-.65,4-1.07-.42a48.72,48.72,0,0,0-6.48-2.15l1.25-5.08-2.83,4.69c-2.79-.67-5.68-1.21-8.44-1.63l1.13-4.58L972.5,299c-7.13-1-13-1.32-13-1.32a103.08,103.08,0,0,1,10.74-9.61Z" transform="translate(-549.72 -1)"/><path class="cls-28" d="M970.26,288.06l3,2.3-2-3a20.71,20.71,0,0,1,4.13-2.36,21.2,21.2,0,0,1,3.82-1l1.55,3.83-.34-4a36.43,36.43,0,0,1,8.21-.13l-.1,4.75,3.09-4.08a17.31,17.31,0,0,1,7.25,3.71l-3.65,4.37,5.19-2.81c7.78,6.83,9,17.66,9,17.66s-23.88-27-49.83-9.57A103.08,103.08,0,0,1,970.26,288.06Z" transform="translate(-549.72 -1)"/><path class="cls-29" d="M972.36,300.76l.47-3a17.8,17.8,0,0,1,3.92.93,17.61,17.61,0,0,1,3,1.56l-1.26,3.27,2.13-2.69a30.3,30.3,0,0,1,5.16,4.66l-2.8,2.89,4.27-.74a14.7,14.7,0,0,1,2.35,6.49l-4.79.6,4.85,1.26c.87,8.73-4.65,16.15-4.65,16.15L983.83,331a38.41,38.41,0,0,1-7.36-10.2l2.22-3.2L976,319.71l-.42-.88a40.31,40.31,0,0,0-2.78-5.08l3.72-2.43L972,312.59c-1.34-2-2.82-4-4.29-5.89l3.35-2.18-4.15,1.17c-3.83-4.76-7.28-8.33-7.28-8.33a87.82,87.82,0,0,1,12.22.26Z" transform="translate(-549.72 -1)"/><path class="cls-30" d="M971.85,297.62l.51,3.14.47-3a17.8,17.8,0,0,1,3.92.93,17.61,17.61,0,0,1,3,1.56l-1.26,3.27,2.13-2.69a30.3,30.3,0,0,1,5.16,4.66l-2.8,2.89,4.27-.74a14.7,14.7,0,0,1,2.35,6.49l-4.79.6,4.85,1.26c.87,8.73-4.65,16.15-4.65,16.15s.82-30.56-25.36-34.76A87.82,87.82,0,0,1,971.85,297.62Z" transform="translate(-549.72 -1)"/><path class="cls-31" d="M959.47,281.85l3.59.35a20.8,20.8,0,0,0,.09-4.75,21.24,21.24,0,0,0-.91-3.86l-4.11.48,3.7-1.64a36.38,36.38,0,0,0-3.81-7.27l-4.13,2.36,2.1-4.66a17.29,17.29,0,0,0-6.73-4.59l-2.08,5.3,0-5.91c-9.73-3.55-19.81.58-19.81.58l1,1.67a45.4,45.4,0,0,0,9.5,11.39l4.3-1.61-3.24,2.51.89.74a47.33,47.33,0,0,1,5,4.66l3.86-3.54-2.75,4.74c1.92,2.12,3.77,4.41,5.47,6.62l3.47-3.18-2.55,4.39c4.31,5.77,7.38,10.76,7.38,10.76a103.72,103.72,0,0,0,3.28-14Z" transform="translate(-549.72 -1)"/><path class="cls-32" d="M962.91,283.36l-3.44-1.51,3.59.35a20.8,20.8,0,0,0,.09-4.75,21.24,21.24,0,0,0-.91-3.86l-4.11.48,3.7-1.64a36.38,36.38,0,0,0-3.81-7.27l-4.13,2.36,2.1-4.66a17.29,17.29,0,0,0-6.73-4.59l-2.08,5.3,0-5.91c-9.73-3.55-19.81.58-19.81.58s35.15,8,32.28,39.15A103.72,103.72,0,0,0,962.91,283.36Z" transform="translate(-549.72 -1)"/><path class="cls-33" d="M949.92,285.35l3-1.94a17.5,17.5,0,0,0-5.93-6.28l-2.95,2.9,1.91-3.57a35.93,35.93,0,0,0-7.48-3.39l-1.8,4.4-1.21-5a17.33,17.33,0,0,0-8.12.51l1.6,5.46-3.64-4.65c-9.85,3.17-15.27,12.63-15.27,12.63l1.78.72a45.61,45.61,0,0,0,14.49,3.16l2.41-3.92-1,4,1.15,0a48,48,0,0,1,6.81.62l.87-5.17.74,5.43c2.82.5,5.68,1.16,8.38,1.86l.79-4.64.68,5c7,1.9,12.43,3.95,12.43,3.95a103,103,0,0,0-6-13.09Z" transform="translate(-549.72 -1)"/><path class="cls-34" d="M953.56,284.42l-3.64.93,3-1.94a17.5,17.5,0,0,0-5.93-6.28l-2.95,2.9,1.91-3.57a35.93,35.93,0,0,0-7.48-3.39l-1.8,4.4-1.21-5a17.33,17.33,0,0,0-8.12.51l1.6,5.46-3.64-4.65c-9.85,3.17-15.27,12.63-15.27,12.63s32.66-15.27,49.51,11.06A103,103,0,0,0,953.56,284.42Z" transform="translate(-549.72 -1)"/><path class="cls-35" d="M946.9,295.24l.82-2.88a18.05,18.05,0,0,0-3.86-.78,17.2,17.2,0,0,0-3.29.16l-.23,3.43-.78-3.27a30.07,30.07,0,0,0-6.51,2l1.31,3.72-3.49-2.42a14.37,14.37,0,0,0-4.75,4.81l4,2.5-4.82-.87c-4.36,7.4-2.5,16.25-2.5,16.25l1.5-.53a37.87,37.87,0,0,0,10.73-6l-.67-3.76,1.56,3c.25-.21.5-.4.73-.61a41.52,41.52,0,0,1,4.56-3.38l-2.31-3.68,3.46,3c2-1.25,4.16-2.42,6.22-3.48l-2.08-3.31,3.21,2.75c5.35-2.66,9.89-4.42,9.89-4.42a86.31,86.31,0,0,0-11-4.78Z" transform="translate(-549.72 -1)"/><path class="cls-36" d="M948.64,292.66l-1.74,2.58.82-2.88a18.05,18.05,0,0,0-3.86-.78,17.2,17.2,0,0,0-3.29.16l-.23,3.43-.78-3.27a30.07,30.07,0,0,0-6.51,2l1.31,3.72-3.49-2.42a14.37,14.37,0,0,0-4.75,4.81l4,2.5-4.82-.87c-4.36,7.4-2.5,16.25-2.5,16.25s11.81-27.49,36.8-20.48A86.31,86.31,0,0,0,948.64,292.66Z" transform="translate(-549.72 -1)"/><path class="cls-12" d="M895.59,290.12s-20.76,28.92-7.68,89.63a1.81,1.81,0,0,1-.67,1.8c-1.5,1.14-4.84,2.51-9.54-2.33a1.83,1.83,0,0,1-.52-1.45c.72-6.81-3.33-62.75,15.17-87.19Z" transform="translate(-549.72 -1)"/><path class="cls-37" d="M895,282.28l-3.56-.57a21.21,21.21,0,0,1,1.11-4.61,20.61,20.61,0,0,1,1.85-3.51l3.86,1.5-3.16-2.52a36.27,36.27,0,0,1,5.52-6.07l3.39,3.33-.85-5a17.23,17.23,0,0,1,7.67-2.74l.68,5.65L913,262c10.3-1,19,5.56,19,5.56l-1.35,1.36a45.54,45.54,0,0,1-12.06,8.63l-3.77-2.64,2.51,3.25c-.35.16-.7.33-1.05.48a49.11,49.11,0,0,0-6,3.26l-2.85-4.4,1.47,5.28c-2.39,1.57-4.76,3.31-7,5l-2.56-4,1.37,4.89c-5.64,4.49-9.86,8.55-9.86,8.55a102.73,102.73,0,0,1,.36-14.41Z" transform="translate(-549.72 -1)"/><path class="cls-38" d="M891.26,282.87l3.71-.59-3.56-.57a21.21,21.21,0,0,1,1.11-4.61,20.61,20.61,0,0,1,1.85-3.51l3.86,1.5-3.16-2.52a36.27,36.27,0,0,1,5.52-6.07l3.39,3.33-.85-5a17.23,17.23,0,0,1,7.67-2.74l.68,5.65L913,262c10.3-1,19,5.56,19,5.56s-36-1.12-41.11,29.73A102.73,102.73,0,0,1,891.26,282.87Z" transform="translate(-549.72 -1)"/><path class="cls-39" d="M904,290.36l-2-3a20.94,20.94,0,0,1,4.12-2.36,21.2,21.2,0,0,1,3.82-1l1.55,3.83-.33-4a36.35,36.35,0,0,1,8.2-.13l-.09,4.75,3.08-4.08A17.31,17.31,0,0,1,929.6,288L926,292.39l5.2-2.81c7.77,6.83,9,17.66,9,17.66l-1.92-.05a45.51,45.51,0,0,1-14.55-2.87l-.65-4.55-.65,4c-.36-.14-.72-.27-1.07-.42a48.88,48.88,0,0,0-6.49-2.15l1.26-5.08-2.84,4.69c-2.79-.67-5.68-1.21-8.43-1.63l1.13-4.58L903.28,299c-7.13-1-13-1.32-13-1.32a103.72,103.72,0,0,1,10.75-9.61Z" transform="translate(-549.72 -1)"/><path class="cls-40" d="M901.05,288.06l3,2.3-2-3a20.94,20.94,0,0,1,4.12-2.36,21.2,21.2,0,0,1,3.82-1l1.55,3.83-.33-4a36.35,36.35,0,0,1,8.2-.13l-.09,4.75,3.08-4.08A17.31,17.31,0,0,1,929.6,288L926,292.39l5.2-2.81c7.77,6.83,9,17.66,9,17.66s-23.88-27-49.83-9.57A103.72,103.72,0,0,1,901.05,288.06Z" transform="translate(-549.72 -1)"/><path class="cls-41" d="M903.14,300.76l.47-3a17.8,17.8,0,0,1,3.92.93,16.88,16.88,0,0,1,3,1.56l-1.26,3.27,2.13-2.69a30.61,30.61,0,0,1,5.17,4.66l-2.81,2.89,4.27-.74a14.7,14.7,0,0,1,2.35,6.49l-4.79.6,4.85,1.26c.87,8.73-4.65,16.15-4.65,16.15L914.61,331a38.64,38.64,0,0,1-7.36-10.2l2.23-3.2-2.75,2.13c-.14-.29-.28-.58-.41-.88a40.43,40.43,0,0,0-2.79-5.08l3.73-2.43-4.48,1.27c-1.34-2-2.82-4-4.28-5.89l3.34-2.18-4.14,1.17c-3.83-4.76-7.29-8.33-7.29-8.33a87.82,87.82,0,0,1,12.22.26Z" transform="translate(-549.72 -1)"/><path class="cls-42" d="M902.63,297.62l.51,3.14.47-3a17.8,17.8,0,0,1,3.92.93,16.88,16.88,0,0,1,3,1.56l-1.26,3.27,2.13-2.69a30.61,30.61,0,0,1,5.17,4.66l-2.81,2.89,4.27-.74a14.7,14.7,0,0,1,2.35,6.49l-4.79.6,4.85,1.26c.87,8.73-4.65,16.15-4.65,16.15s.82-30.56-25.36-34.76A87.82,87.82,0,0,1,902.63,297.62Z" transform="translate(-549.72 -1)"/><path class="cls-43" d="M890.26,281.85l3.58.35a20.8,20.8,0,0,0,.09-4.75,21.22,21.22,0,0,0-.9-3.86l-4.11.48,3.69-1.64a35.79,35.79,0,0,0-3.81-7.27l-4.13,2.36,2.1-4.66a17.29,17.29,0,0,0-6.73-4.59l-2.08,5.3,0-5.91c-9.72-3.55-19.8.58-19.8.58l1,1.67a45.15,45.15,0,0,0,9.49,11.39l4.31-1.61-3.24,2.51c.29.25.58.5.88.74a47.33,47.33,0,0,1,5,4.66l3.87-3.54-2.76,4.74c1.92,2.12,3.78,4.41,5.47,6.62l3.47-3.18L883,286.63c4.32,5.77,7.38,10.76,7.38,10.76a103,103,0,0,0,3.29-14Z" transform="translate(-549.72 -1)"/><path class="cls-44" d="M893.7,283.36l-3.44-1.51,3.58.35a20.8,20.8,0,0,0,.09-4.75,21.22,21.22,0,0,0-.9-3.86l-4.11.48,3.69-1.64a35.79,35.79,0,0,0-3.81-7.27l-4.13,2.36,2.1-4.66a17.29,17.29,0,0,0-6.73-4.59l-2.08,5.3,0-5.91c-9.72-3.55-19.8.58-19.8.58s35.14,8,32.27,39.15A103,103,0,0,0,893.7,283.36Z" transform="translate(-549.72 -1)"/><path class="cls-45" d="M880.7,285.35l3-1.94a17.28,17.28,0,0,0-5.93-6.28l-2.95,2.9,1.91-3.57a36,36,0,0,0-7.47-3.39l-1.81,4.4-1.2-5a17.36,17.36,0,0,0-8.13.51l1.61,5.46-3.65-4.65c-9.85,3.17-15.27,12.63-15.27,12.63l1.78.72a45.61,45.61,0,0,0,14.49,3.16l2.41-3.92-1,4,1.15,0a47.84,47.84,0,0,1,6.8.62l.87-5.17.74,5.43c2.82.5,5.69,1.16,8.39,1.86l.78-4.64.68,5c7,1.9,12.44,3.95,12.44,3.95a103.77,103.77,0,0,0-6-13.09Z" transform="translate(-549.72 -1)"/><path class="cls-46" d="M884.34,284.42l-3.64.93,3-1.94a17.28,17.28,0,0,0-5.93-6.28l-2.95,2.9,1.91-3.57a36,36,0,0,0-7.47-3.39l-1.81,4.4-1.2-5a17.36,17.36,0,0,0-8.13.51l1.61,5.46-3.65-4.65c-9.85,3.17-15.27,12.63-15.27,12.63s32.66-15.27,49.52,11.06A103.77,103.77,0,0,0,884.34,284.42Z" transform="translate(-549.72 -1)"/><path class="cls-47" d="M877.68,295.24l.82-2.88a17.82,17.82,0,0,0-3.86-.78,17.06,17.06,0,0,0-3.28.16l-.23,3.43-.79-3.27a29.86,29.86,0,0,0-6.5,2l1.31,3.72-3.49-2.42A14.46,14.46,0,0,0,856.9,300l4,2.5-4.83-.87c-4.36,7.4-2.5,16.25-2.5,16.25l1.51-.53a37.82,37.82,0,0,0,10.72-6l-.67-3.76,1.57,3,.73-.61a39.69,39.69,0,0,1,4.56-3.38l-2.32-3.68,3.46,3c2-1.25,4.16-2.42,6.22-3.48l-2.07-3.31,3.2,2.75c5.36-2.66,9.89-4.42,9.89-4.42a85.85,85.85,0,0,0-11-4.78Z" transform="translate(-549.72 -1)"/><path class="cls-48" d="M879.43,292.66l-1.75,2.58.82-2.88a17.82,17.82,0,0,0-3.86-.78,17.06,17.06,0,0,0-3.28.16l-.23,3.43-.79-3.27a29.86,29.86,0,0,0-6.5,2l1.31,3.72-3.49-2.42A14.46,14.46,0,0,0,856.9,300l4,2.5-4.83-.87c-4.36,7.4-2.5,16.25-2.5,16.25s11.82-27.49,36.8-20.48A85.85,85.85,0,0,0,879.43,292.66Z" transform="translate(-549.72 -1)"/><path class="cls-49" d="M1074.06,419.89c3,0,120-90.46,63.47-182.08S965,199.6,965,199.6s45.62-48.82,159.67-48.82q1.78,0,3.54,0c84.67,1.44,152.16,71.4,152.16,156.08v116Z" transform="translate(-549.72 -1)"/><path class="cls-50" d="M1074.06,419.89c3,0,120-90.46,63.47-182.08S965,199.6,965,199.6s45.62-48.82,159.67-48.82q1.78,0,3.54,0c84.67,1.44,152.16,71.4,152.16,156.08v116Z" transform="translate(-549.72 -1)"/><path class="cls-51" d="M1070.47,189.18c-5.14,1.11-11.07.83-14.85,4.48-2,1.93-3.34,4.91-6,5.52-3.6.8-6.61-3.19-10.29-3.46-6.2-.47-10.94,9.44-16.48,6.61-1.61-.82-2.55-2.55-4-3.66-4-3.11-9.68-.47-14.35,1.48s-11.79,1.95-13-3c-5,4.47-12.22,9.18-17.88,5.54-1.51-1-2.77-2.51-4.55-2.79s-3.51.85-5.29,1.33c-6.56,1.81-12.53-6.51-10.49-13s9.14-10.18,15.91-10.84c2.08-.21,4.24-.21,6.12-1.1s3.13-2.4,4.56-3.78c8.75-8.44,21.61-10.62,33.63-12.41l18.76-2.79A22.71,22.71,0,0,0,1038,156c2-.84,3.62-2.2,5.5-3.16,3.47-1.78,7.46-2.14,11.34-2.46l35.8-3c8.42-.7,17.73-1.17,24.44,4a3.08,3.08,0,0,1,1.28,1.64c.33,1.48-1.3,2.59-2.67,3.22l-27.38,12.65C1074.68,174.2,1083.17,186.45,1070.47,189.18Z" transform="translate(-549.72 -1)"/><path class="cls-52" d="M1070.47,189.18c-5.14,1.11-11.07.83-14.85,4.48-2,1.93-3.34,4.91-6,5.52-3.6.8-6.61-3.19-10.29-3.46-6.2-.47-10.94,9.44-16.48,6.61-1.61-.82-2.55-2.55-4-3.66-4-3.11-9.68-.47-14.35,1.48s-11.79,1.95-13-3c-5,4.47-12.22,9.18-17.88,5.54-1.51-1-2.77-2.51-4.55-2.79s-3.51.85-5.29,1.33c-6.56,1.81-12.53-6.51-10.49-13s9.14-10.18,15.91-10.84c2.08-.21,4.24-.21,6.12-1.1s3.13-2.4,4.56-3.78c8.75-8.44,21.61-10.62,33.63-12.41l18.76-2.79A22.71,22.71,0,0,0,1038,156c2-.84,3.62-2.2,5.5-3.16,3.47-1.78,7.46-2.14,11.34-2.46l35.8-3c8.42-.7,17.73-1.17,24.44,4a3.08,3.08,0,0,1,1.28,1.64c.33,1.48-1.3,2.59-2.67,3.22l-27.38,12.65C1074.68,174.2,1083.17,186.45,1070.47,189.18Z" transform="translate(-549.72 -1)"/><path class="cls-49" d="M809.28,411.45c12.4,0,12.4-5.95,24.8-5.95s12.4,5.95,24.8,5.95,12.4-5.95,24.79-5.95,12.4,5.95,24.8,5.95,12.4-5.95,24.79-5.95,12.4,5.95,24.79,5.95,12.4-5.95,24.8-5.95,12.39,5.95,24.78,5.95,12.4-5.95,24.8-5.95,12.39,5.95,24.79,5.95,12.39-5.95,24.79-5.95,12.4,5.95,24.79,5.95,12.4-5.95,24.79-5.95,12.4,5.95,24.79,5.95,12.4-5.95,24.8-5.95,12.39,5.95,24.79,5.95,12.39-5.95,24.79-5.95,12.39,5.95,24.79,5.95,12.39-5.95,24.79-5.95v47.75H784.48V426.36h0a15.78,15.78,0,0,1,19-15.44A28.54,28.54,0,0,0,809.28,411.45Z" transform="translate(-549.72 -1)"/><path class="cls-53" d="M809.28,450.67c12.4,0,12.4-5.95,24.8-5.95s12.4,5.95,24.8,5.95,12.4-5.95,24.79-5.95,12.4,5.95,24.8,5.95,12.4-5.95,24.79-5.95,12.4,5.95,24.79,5.95,12.4-5.95,24.8-5.95,12.39,5.95,24.78,5.95,12.4-5.95,24.8-5.95,12.39,5.95,24.79,5.95,12.39-5.95,24.79-5.95,12.4,5.95,24.79,5.95,12.4-5.95,24.79-5.95,12.4,5.95,24.79,5.95,12.4-5.95,24.8-5.95,12.39,5.95,24.79,5.95,12.39-5.95,24.79-5.95,12.39,5.95,24.79,5.95,12.39-5.95,24.79-5.95h0a182.86,182.86,0,0,1-182.86,182.86H967.34A182.86,182.86,0,0,1,784.48,444.72h0C796.88,444.72,796.88,450.67,809.28,450.67Z" transform="translate(-549.72 -1)"/><path class="cls-53" d="M809.28,450.67c12.4,0,12.4-5.95,24.8-5.95s12.4,5.95,24.8,5.95,12.4-5.95,24.79-5.95,12.4,5.95,24.8,5.95,12.4-5.95,24.79-5.95,12.4,5.95,24.79,5.95,12.4-5.95,24.8-5.95,12.39,5.95,24.78,5.95,12.4-5.95,24.8-5.95,12.39,5.95,24.79,5.95,12.39-5.95,24.79-5.95,12.4,5.95,24.79,5.95,12.4-5.95,24.79-5.95,12.4,5.95,24.79,5.95,12.4-5.95,24.8-5.95,12.39,5.95,24.79,5.95,12.39-5.95,24.79-5.95,12.39,5.95,24.79,5.95,12.39-5.95,24.79-5.95h0a182.86,182.86,0,0,1-182.86,182.86H967.34A182.86,182.86,0,0,1,784.48,444.72h0C796.88,444.72,796.88,450.67,809.28,450.67Z" transform="translate(-549.72 -1)"/><path class="cls-54" d="M934,382.48c0,1.8,3.17,3.26,7.09,3.26s7.08-1.46,7.08-3.26-3.17-3.26-7.08-3.26S934,380.68,934,382.48Z" transform="translate(-549.72 -1)"/><path class="cls-55" d="M946.19,383.31a18.23,18.23,0,0,0,2.27-8.78q-1.44,2.81-2.89,5.6a16,16,0,0,0,1.11-10.86q-1.32,5-2.62,10.06a17,17,0,0,0-.78-7.21q-.36,3.51-.71,7a12.2,12.2,0,0,0-2-8c0,2.94,0,5.89,0,8.83a9.7,9.7,0,0,0-2.22-6.91c.17,2.51.33,5,.5,7.53a9.74,9.74,0,0,0-2-6.1A16.91,16.91,0,0,0,938,383s1,1.05,4.59,1.05S946.19,383.31,946.19,383.31Z" transform="translate(-549.72 -1)"/><path class="cls-56" d="M854.92,384.89c0,1.8,3.17,3.26,7.08,3.26s7.09-1.46,7.09-3.26-3.17-3.25-7.09-3.25S854.92,383.09,854.92,384.89Z" transform="translate(-549.72 -1)"/><path class="cls-57" d="M867.06,385.73a18.16,18.16,0,0,0,2.28-8.79q-1.46,2.81-2.89,5.61a16.07,16.07,0,0,0,1.11-10.87q-1.32,5-2.63,10.06a16.74,16.74,0,0,0-.78-7.2q-.35,3.49-.71,7a12.22,12.22,0,0,0-2-8c0,2.95,0,5.89,0,8.84a9.71,9.71,0,0,0-2.22-6.92c.16,2.51.33,5,.49,7.54a9.73,9.73,0,0,0-2-6.1,17,17,0,0,0,1.18,8.51s1,1.06,4.6,1.06S867.06,385.73,867.06,385.73Z" transform="translate(-549.72 -1)"/><path class="cls-58" d="M911,381.64c0,1.8,3.17,3.26,7.08,3.26s7.08-1.46,7.08-3.26-3.17-3.26-7.08-3.26S911,379.84,911,381.64Z" transform="translate(-549.72 -1)"/><path class="cls-59" d="M923.1,382.47a18.24,18.24,0,0,0,2.27-8.79l-2.88,5.61a16,16,0,0,0,1.1-10.86q-1.3,5-2.62,10.06a16.8,16.8,0,0,0-.78-7.21l-.71,7a12.2,12.2,0,0,0-2-8l0,8.83a9.73,9.73,0,0,0-2.22-6.91q.24,3.77.49,7.53a9.74,9.74,0,0,0-2-6.1,17,17,0,0,0,1.19,8.51s1,1.06,4.6,1.06S923.1,382.47,923.1,382.47Z" transform="translate(-549.72 -1)"/><path class="cls-60" d="M874.63,382.84c0,1.8,3.17,3.26,7.08,3.26s7.09-1.46,7.09-3.26-3.17-3.26-7.09-3.26S874.63,381,874.63,382.84Z" transform="translate(-549.72 -1)"/><path class="cls-61" d="M886.78,383.67a18.27,18.27,0,0,0,2.27-8.79l-2.89,5.61a16,16,0,0,0,1.11-10.86q-1.32,5-2.63,10.06a16.8,16.8,0,0,0-.78-7.21c-.23,2.34-.47,4.67-.71,7a12.14,12.14,0,0,0-2-8c0,2.94,0,5.88,0,8.83a9.68,9.68,0,0,0-2.22-6.91q.25,3.76.49,7.53a9.73,9.73,0,0,0-2-6.1,17,17,0,0,0,1.18,8.51s1,1.06,4.6,1.06S886.78,383.67,886.78,383.67Z" transform="translate(-549.72 -1)"/><path class="cls-62" d="M948.39,382.84c0,1.8,3.17,3.26,7.08,3.26s7.08-1.46,7.08-3.26-3.17-3.26-7.08-3.26S948.39,381,948.39,382.84Z" transform="translate(-549.72 -1)"/><path class="cls-63" d="M960.53,383.67a18,18,0,0,0,2.27-8.79l-2.88,5.61A16.1,16.1,0,0,0,961,369.63q-1.32,5-2.63,10.06a16.8,16.8,0,0,0-.78-7.21l-.71,7a12.2,12.2,0,0,0-2-8l0,8.83a9.73,9.73,0,0,0-2.22-6.91c.16,2.51.33,5,.49,7.53a9.79,9.79,0,0,0-2-6.1,16.85,16.85,0,0,0,1.18,8.51s1,1.06,4.6,1.06S960.53,383.67,960.53,383.67Z" transform="translate(-549.72 -1)"/><path class="cls-64" d="M983.78,392.2c0,1.8,3.17,3.26,7.08,3.26s7.08-1.46,7.08-3.26-3.17-3.26-7.08-3.26S983.78,390.4,983.78,392.2Z" transform="translate(-549.72 -1)"/><path class="cls-65" d="M995.92,393a18.14,18.14,0,0,0,2.28-8.79q-1.46,2.81-2.89,5.61A16,16,0,0,0,996.42,379q-1.32,5-2.63,10.06a16.8,16.8,0,0,0-.78-7.21c-.23,2.34-.47,4.67-.71,7a12.2,12.2,0,0,0-2-8c0,2.94,0,5.89,0,8.83a9.7,9.7,0,0,0-2.22-6.91c.16,2.51.33,5,.49,7.53a9.73,9.73,0,0,0-2-6.1,16.85,16.85,0,0,0,1.18,8.51s1,1.06,4.6,1.06S995.92,393,995.92,393Z" transform="translate(-549.72 -1)"/><path class="cls-66" d="M1225.13,454.82c0,2,3.4,3.57,7.6,3.57s7.61-1.6,7.61-3.57-3.41-3.57-7.61-3.57S1225.13,452.85,1225.13,454.82Z" transform="translate(-549.72 -1)"/><path class="cls-66" d="M874.24,456.71c0,2,3.4,3.57,7.6,3.57s7.6-1.6,7.6-3.57-3.4-3.57-7.6-3.57S874.24,454.74,874.24,456.71Z" transform="translate(-549.72 -1)"/><path class="cls-66" d="M1017.48,418.08c0,2,3.4,3.57,7.6,3.57s7.61-1.6,7.61-3.57-3.41-3.57-7.61-3.57S1017.48,416.11,1017.48,418.08Z" transform="translate(-549.72 -1)"/><path class="cls-66" d="M861.48,418.08c0,2,3.41,3.57,7.61,3.57s7.6-1.6,7.6-3.57-3.4-3.57-7.6-3.57S861.48,416.11,861.48,418.08Z" transform="translate(-549.72 -1)"/><path class="cls-66" d="M1212.56,463.35c0,1,1.7,1.78,3.8,1.78s3.8-.8,3.8-1.78-1.7-1.79-3.8-1.79S1212.56,462.36,1212.56,463.35Z" transform="translate(-549.72 -1)"/><path class="cls-66" d="M1082.7,413c0,1,1.7,1.79,3.8,1.79s3.8-.8,3.8-1.79-1.7-1.79-3.8-1.79S1082.7,412,1082.7,413Z" transform="translate(-549.72 -1)"/><path class="cls-66" d="M878,411.33c0,1,1.7,1.79,3.8,1.79s3.8-.8,3.8-1.79-1.7-1.78-3.8-1.78S878,410.34,878,411.33Z" transform="translate(-549.72 -1)"/><ellipse class="cls-66" cx="286.75" cy="450.25" rx="3.8" ry="1.78"/><path class="cls-66" d="M802.22,473.43c0,1,1.7,1.79,3.8,1.79s3.8-.8,3.8-1.79-1.7-1.78-3.8-1.78S802.22,472.45,802.22,473.43Z" transform="translate(-549.72 -1)"/><path class="cls-66" d="M1122.65,451.37c0,1,1.71,1.79,3.81,1.79s3.8-.8,3.8-1.79-1.7-1.78-3.8-1.78S1122.65,450.39,1122.65,451.37Z" transform="translate(-549.72 -1)"/><path class="cls-67" d="M1101.68,250.47c0-.07,0-.14,0-.21a10.1,10.1,0,0,0-10.11-10.11h-.27c-1.29-7.77-7.08-13.63-14-13.63-7.18,0-13.12,6.26-14.15,14.41a10.13,10.13,0,0,0-14.05,9.32c0,.17,0,.33,0,.5a5,5,0,0,0-7,6l-20.32,3.64h78.49a5,5,0,0,0,1.44-9.89Z" transform="translate(-549.72 -1)"/><path class="cls-68" d="M845.71,184.91c0-.08,0-.15,0-.23a11.22,11.22,0,0,1,11.22-11.22l.3,0c1.44-8.63,7.86-15.13,15.57-15.13,8,0,14.56,7,15.7,16a11.21,11.21,0,0,1,15.59,10.33c0,.19,0,.37,0,.56a5.53,5.53,0,0,1,2.43-.56,5.61,5.61,0,0,1,5.61,5.61,5.35,5.35,0,0,1-.23,1.56l22.55,4H847.32a5.61,5.61,0,0,1-1.61-11Z" transform="translate(-549.72 -1)"/><path class="cls-69" d="M630.94,251.22c-39.34-54.72-80-111.31-79.21-171.62A152.81,152.81,0,0,1,574,1H571.5c-14.07,23.69-21.39,50.05-21.77,78.58-.81,61,40.06,117.82,79.59,172.81,29.76,41.4,57.88,80.51,69.23,120.9,12.8,45.55,1.82,84.83-34.54,123.62-30.87,32.93-54.2,67.71-69.34,103.38-12.12,28.56-19,57.75-20.59,86.75-2.63,49.42,11.53,81.64,11.67,82l1.82-.82c-.14-.31-14.1-32.09-11.49-81,2.4-45.22,19.86-114.7,89.39-188.87,19.46-20.76,31.56-41.57,37-63.6,4.84-19.7,4.2-40-2-61.92C689,332,660.81,292.77,630.94,251.22Z" transform="translate(-549.72 -1)"/></g></g></svg>