<svg id="Layer_1" data-name="Layer 1" xmlns="http://www.w3.org/2000/svg" width="109.77" height="50" viewBox="0 0 109.77 50"><defs><style>.cls-1{fill:#f8f8f8;}.cls-2{fill:#50b1ae;}</style></defs><title>logo</title><circle class="cls-1" cx="24.28" cy="24.56" r="19.85"/><circle class="cls-1" cx="5.59" cy="44.41" r="5.59"/><path class="cls-2" d="M31.25,59.14H26.67V49.33a5,5,0,0,0-.61-2.73,2.15,2.15,0,0,0-1.92-.91A2.77,2.77,0,0,0,21.59,47a8.41,8.41,0,0,0-.8,4.26v7.9H16.2V42.34h3.51l.61,2.15h.26a4.62,4.62,0,0,1,2-1.81A6.29,6.29,0,0,1,25.46,42c2.52,0,4.22.83,5.11,2.47H31a4.52,4.52,0,0,1,2-1.82,6.68,6.68,0,0,1,3-.65,5.86,5.86,0,0,1,4.32,1.47c1,1,1.47,2.54,1.47,4.7v11h-4.6V49.33a5,5,0,0,0-.61-2.73,2.15,2.15,0,0,0-1.92-.91,2.87,2.87,0,0,0-2.52,1.2,6.92,6.92,0,0,0-.83,3.82Z" transform="translate(-0.79 -26.17)"/><rect class="cls-2" x="45.64" y="14.91" width="4.58" height="18.36"/><path class="cls-2" d="M67.55,54.15a4.62,4.62,0,0,1-1.8,3.94,8.89,8.89,0,0,1-5.37,1.35,17.4,17.4,0,0,1-3.13-.24,12.17,12.17,0,0,1-2.42-.73V54.68a15.89,15.89,0,0,0,2.88,1,11.69,11.69,0,0,0,2.82.4q2.49,0,2.49-1.44a1.22,1.22,0,0,0-.33-.88A4.77,4.77,0,0,0,61.55,53c-.54-.28-1.26-.62-2.17-1a13.41,13.41,0,0,1-2.84-1.5,4.16,4.16,0,0,1-1.32-1.58,5.19,5.19,0,0,1-.42-2.21,4,4,0,0,1,1.74-3.46A8.39,8.39,0,0,1,61.46,42a14.06,14.06,0,0,1,5.91,1.33L66,46.65c-.84-.36-1.63-.65-2.36-.88a7.38,7.38,0,0,0-2.24-.35c-1.35,0-2,.37-2,1.1A1.31,1.31,0,0,0,60,47.59a18.17,18.17,0,0,0,2.86,1.33,13.37,13.37,0,0,1,2.89,1.49A4.39,4.39,0,0,1,67.11,52,4.94,4.94,0,0,1,67.55,54.15Z" transform="translate(-0.79 -26.17)"/><path class="cls-2" d="M78.2,55.79a10,10,0,0,0,2.89-.52v3.41a10.32,10.32,0,0,1-4.21.76,5.16,5.16,0,0,1-4-1.39,6.06,6.06,0,0,1-1.25-4.17v-8.1h-2.2V43.84L72,42.31l1.32-3.55H76.2v3.58h4.71v3.44H76.2v8.1a1.84,1.84,0,0,0,.55,1.45A2.17,2.17,0,0,0,78.2,55.79Z" transform="translate(-0.79 -26.17)"/><rect class="cls-2" x="83.69" y="7.52" width="4.58" height="25.75"/><path class="cls-2" d="M98.28,50l2-2.55,4.7-5.11h5.17l-6.67,7.29,7.08,9.51h-5.29l-4.84-6.81-2,1.58v5.23H93.88V35.76h4.58V46.19L98.22,50Z" transform="translate(-0.79 -26.17)"/><circle class="cls-2" cx="47.93" cy="11.98" r="2.32"/><circle class="cls-2" cx="85.95" cy="4.19" r="2.32"/><path class="cls-2" d="M48.72,40.5a.52.52,0,0,1-.49-.37.51.51,0,0,1,.34-.64L86.63,28.05a.52.52,0,0,1,.64.35.51.51,0,0,1-.35.63L48.87,40.47A.4.4,0,0,1,48.72,40.5Z" transform="translate(-0.79 -26.17)"/><path class="cls-2" d="M63.1,36.16a1.13,1.13,0,0,1-.53-.14,1.11,1.11,0,0,1-.54-.66l-1.59-5.21a1.13,1.13,0,0,1,.75-1.4l8.31-2.53a1.13,1.13,0,0,1,1.4.75l1.59,5.21a1.14,1.14,0,0,1-.09.85,1.09,1.09,0,0,1-.66.55h0l-8.31,2.53A1.26,1.26,0,0,1,63.1,36.16Zm6.73-9h0l-8.31,2.53a.11.11,0,0,0-.07.12L63,35.06a.1.1,0,0,0,.12.07l8.31-2.53a.1.1,0,0,0,.06-.05l-1.58-5.28A.1.1,0,0,0,69.83,27.2Z" transform="translate(-0.79 -26.17)"/><rect class="cls-2" x="69.62" y="32.23" width="0.57" height="0.57" rx="0.12" transform="translate(-7.23 -4.43) rotate(-16.91)"/><rect class="cls-2" x="70.29" y="31.99" width="0.57" height="0.57" rx="0.12" transform="translate(-7.13 -4.25) rotate(-16.91)"/><path class="cls-2" d="M66.62,35.11a.5.5,0,0,1-.49-.36l-1.95-6.37a.51.51,0,0,1,1-.3l2,6.37a.51.51,0,0,1-.34.64A.39.39,0,0,1,66.62,35.11Z" transform="translate(-0.79 -26.17)"/></svg>